<svg width="24" height="24" viewBox="0 0 24 24" fill="none" xmlns="http://www.w3.org/2000/svg">
<mask id="mask0_2658_22" style="mask-type:alpha" maskUnits="userSpaceOnUse" x="0" y="0" width="24" height="24">
<rect width="24" height="24" fill="#181818"/>
</mask>
<g mask="url(#mask0_2658_22)">
<path d="M4 15C4 17.2091 5.79086 19 8 19H16C18.2091 19 20 17.2091 20 15" stroke="#181818" stroke-linecap="round"/>
<path d="M12 5L12 14.5M7 10.5L11.2929 14.7929C11.6834 15.1834 12.3166 15.1834 12.7071 14.7929L17 10.5" stroke="#181818" stroke-linecap="round"/>
<path d="M4 15C4 17.2091 5.79086 19 8 19H16C18.2091 19 20 17.2091 20 15" stroke="#181818" stroke-linecap="round"/>
<path d="M12 5L12 14.5M7 10.5L11.2929 14.7929C11.6834 15.1834 12.3166 15.1834 12.7071 14.7929L17 10.5" stroke="#181818" stroke-linecap="round"/>
</g>
</svg>
