<svg width="86" height="86" viewBox="0 0 86 86" fill="none" xmlns="http://www.w3.org/2000/svg">
<path d="M25.7249 25.7247C16.1828 35.2667 16.1828 50.7331 25.7249 60.2752C35.267 69.8173 50.7334 69.8173 60.2754 60.2752C69.8175 50.7331 69.8175 35.2667 60.2754 25.7247C50.7334 16.1826 35.267 16.1826 25.7249 25.7247Z" fill="#F83B66"/>
<path d="M78.8449 13.2732C78.8449 7.4792 74.1499 2.78471 68.3553 2.78471C66.1562 2.78471 64.12 3.46532 62.4328 4.61713C46.2883 -3.53861 26.0421 -0.891771 12.5796 12.5751C-4.19321 29.3461 -4.19321 56.6405 12.5796 73.4174C20.969 81.8058 31.9822 86 43.0012 86C54.0202 86 65.0392 81.8058 73.4227 73.4174C88.5666 58.2751 90.0327 34.5525 77.8326 17.7466C78.4726 16.3854 78.8449 14.8729 78.8449 13.2732ZM68.1052 68.0946C54.2645 81.9338 31.7436 81.9338 17.903 68.0946C4.06231 54.2554 4.06231 31.737 17.903 17.8978C24.8262 10.9754 33.9137 7.51992 43.007 7.51992C48.1907 7.51992 53.3686 8.64846 58.1508 10.8939C57.9705 11.6618 57.8716 12.4529 57.8716 13.2732C57.8716 19.0671 62.5666 23.7616 68.3612 23.7616C69.7633 23.7616 71.1014 23.4824 72.3231 22.9821C81.7539 36.7922 80.3576 55.8435 68.1052 68.0946Z" fill="#F83B66"/>
</svg>
